<svg xmlns="http://www.w3.org/2000/svg" viewBox="0 0 1011.02 1009.73">
  <g id="Layer_2" data-name="Layer 2">
    <g id="Layer_1-2" data-name="Layer 1">
      <path d="M504,0c269.76-1.85,497.09,207.57,506.69,489,10,292.94-224,510.8-485.07,520.37C245.45,1019.65,12.36,799.69.49,528.12-11.91,244.35,211-.84,504,0ZM421,592.62c.73.88,1.16,1.32,1.49,1.82q20.57,31.32,41.11,62.64,53.49,81.7,106.87,163.48c2,3,4.19,3.18,7.1,3.17q69.48,0,139,0c1.58,0,3.15-.19,5.47-.34-7.25-10.62-14.12-20.58-20.88-30.6q-56.31-83.44-112.59-166.88c-10.16-15-19.38-31-31.26-44.52-29-33.09-67.27-49.33-110.16-54.66C430,524.61,412.57,525,395.27,525c-61.15,0-122.3.23-183.45.42-1.92,0-3.84.32-5.76.5a8.11,8.11,0,0,0,4.9,1.92c21.75,2.24,43,6.52,63.63,14.11,26.8,9.88,49.93,25.16,68.24,47.15,26.87,32.28,38.46,70.25,40,111.63,1,25.72-1.67,51.21-5.58,76.6-1.09,7.05-1.85,14.15-2.75,21.23l1.84.29C396.55,731.43,405.92,661.65,421,592.62ZM216.15,484.89l.08,1.08h7.08q101-.14,202-.23c20.07,0,39.92-1.63,59.48-6.13a214.16,214.16,0,0,0,84.43-40.55c34-26.56,67.3-54,100.32-81.74,56.88-47.79,113.32-96.11,170-144.2,1.7-1.45,3.51-2.76,5.27-4.13l-1-1.33c-1.26-.11-2.53-.31-3.79-.31-43.66,0-87.32-.06-131,.11a12,12,0,0,0-7,2.79q-104.26,88.38-208.38,177C481,397.85,468.32,408.38,455.64,419c9.22-32,19.06-63.51,27.34-95.43,14.36-55.34,20.3-90.12,17.84-96.64-.22.23-.56.43-.64.7-7.95,27-17.34,53.45-29.21,79-22.61,48.64-54.69,89.66-97.86,121.78-43.4,32.3-92.89,48.34-145.94,55C223.5,483.9,219.83,484.4,216.15,484.89Zm0,338.31a18.09,18.09,0,0,0,2.49.44c39.48,0,79,0,118.43.09,3.33,0,4.23-1.72,5-4.27,11.2-35.37,17.63-71.36,14-108.62-1.93-19.65-7.16-38.29-18.23-54.86-14.78-22.14-36.18-35.37-60.77-44-27.57-9.69-56.34-11-85.15-11.87-.24,0-.5.66-.07.06C204.73,604.35,218,608,230.74,613c16.21,6.35,28.43,17.28,30.69,35.55a111.67,111.67,0,0,1-.16,29.28c-5.32,36.88-16.74,72.17-29.67,107C226.86,797.55,221.47,810.05,216.17,823.2ZM368.25,207.56c-.48,3.22-.91,5.84-1.26,8.48-4.51,34.55-10.92,68.7-23.36,101.4-8.83,23.23-21.72,43.77-41.51,59.46-20.88,16.55-45.23,25-70.84,30.55-7.13,1.55-14.29,2.94-21.43,4.39,6.26.69,12.36.28,18.47,0,33.56-1.63,66.56-6.55,98.6-16.95,44.12-14.31,81.48-38.47,109-76.35,20.66-28.47,34.28-60.35,43.42-94.21,1.46-5.4,2.71-10.86,4.18-16.76ZM742.51,336.27c-51.64,64.89-117.27,111.83-190.69,148.9,47.72-10.36,90.78-31.07,131.48-57.71-33.27,81-30.16,162-2.84,243.22C671.11,553.71,695.58,443.1,742.51,336.27Z"/>
    </g>
  </g>
</svg>
